<svg fill="none" height="900" viewBox="0 0 1440 900" width="1440" xmlns="http://www.w3.org/2000/svg" xmlns:xlink="http://www.w3.org/1999/xlink"><linearGradient id="a"><stop offset="0" stop-color="#346eee"/><stop offset="1" stop-color="#89d6a2"/></linearGradient><linearGradient id="b" gradientUnits="userSpaceOnUse" x1="1090.48" x2="1489.95" xlink:href="#a" y1="688.102" y2="30.3374"/><linearGradient id="c" gradientUnits="userSpaceOnUse" x1="-71.9756" x2="-216.771" xlink:href="#a" y1="329.855" y2="830.571"/><linearGradient id="d" gradientUnits="userSpaceOnUse" x1="1511.98" x2="1656.77" xlink:href="#a" y1="740.128" y2="239.413"/><clipPath id="e"><path d="m0 0h1440v900h-1440z"/></clipPath><mask id="f" height="900" maskUnits="userSpaceOnUse" width="1440" x="0" y="0"><path clip-rule="evenodd" d="m0 0h1440v900h-1440z" fill="#fff" fill-rule="evenodd"/></mask><mask id="g" height="900" maskUnits="userSpaceOnUse" width="1440" x="0" y="0"><path clip-rule="evenodd" d="m1440 0v900h-1440v-900z" fill="#fff" fill-rule="evenodd"/></mask><g clip-path="url(#e)" clip-rule="evenodd" fill-rule="evenodd"><path d="m0 0h1440v900h-1440z" fill="#fff"/><g mask="url(#f)"><path d="m1440 0v900h-1440v-900z" fill="url(#b)"/><g mask="url(#g)"><path d="m-375.561 523.554 137.562-513.3892 513.39-137.5618 375.827 375.827-137.563 513.39-513.3894 137.562z" fill="url(#c)"/><path d="m1815.56 546.43-137.56 513.39-513.39 137.56-375.828-375.826 137.562-513.389 513.386-137.563z" fill="url(#d)"/></g></g></g></svg>